
<svg xmlns="http://www.w3.org/2000/svg" viewBox="0 0 24 24" fill="white" class="w-10 h-10">
  <path d="M12 .5C5.65.5.5 5.65.5 12c0 5.1 3.29 9.43 7.86 10.96.57.1.78-.25.78-.55
  0-.27-.01-1.17-.02-2.12-3.2.7-3.88-1.54-3.88-1.54-.52-1.33-1.28-1.68-1.28-1.68
  -1.04-.71.08-.7.08-.7 1.15.08 1.75 1.18 1.75 1.18 1.02 1.75 2.67 1.25
  3.32.96.1-.74.4-1.25.72-1.54-2.55-.29-5.23-1.27-5.23-5.65
  0-1.25.45-2.27 1.18-3.07-.12-.29-.51-1.46.11-3.05 0 0 .96-.31 3.15 1.17
  .91-.25 1.88-.38 2.85-.38.97 0 1.94.13 2.85.38
  2.19-1.48 3.15-1.17 3.15-1.17.62 1.59.23 2.76.11 3.05
  .73.8 1.18 1.82 1.18 3.07 0 4.39-2.69 5.36-5.25 5.64
  .41.35.77 1.04.77 2.1 0 1.52-.01 2.74-.01 3.11
  0 .3.21.66.79.55A11.52 11.52 0 0 0 23.5 12
  C23.5 5.65 18.35.5 12 .5z"/>
</svg>
